<svg xmlns="http://www.w3.org/2000/svg" width="64" height="64" viewBox="0 0 64 64">
  <g id="Grupo_190" data-name="Grupo 190" transform="translate(-828 -289)">
    <circle id="Elipse_6" data-name="Elipse 6" cx="32" cy="32" r="32" transform="translate(828 289)" fill="#fec76c"/>
    <g id="Icon_awesome-calendar-check" data-name="Icon awesome-calendar-check" transform="translate(845.584 303)">
      <path id="Icon_awesome-calendar-check-2" data-name="Icon awesome-calendar-check" d="M28.725,10.541H.791A.791.791,0,0,1,0,9.751V7.379A3.162,3.162,0,0,1,3.162,4.217H6.325V.791A.791.791,0,0,1,7.115,0H9.751a.791.791,0,0,1,.791.791V4.217h8.433V.791A.791.791,0,0,1,19.765,0H22.4a.791.791,0,0,1,.791.791V4.217h3.162a3.162,3.162,0,0,1,3.162,3.162V9.751A.791.791,0,0,1,28.725,10.541ZM.791,12.65H28.725a.791.791,0,0,1,.791.791V30.57a3.162,3.162,0,0,1-3.162,3.162H3.162A3.162,3.162,0,0,1,0,30.57V13.44A.791.791,0,0,1,.791,12.65Zm21.959,6.321L20.893,17.1a.791.791,0,0,0-1.118,0l-6.986,6.93L9.76,20.972a.791.791,0,0,0-1.118,0L6.771,22.823a.791.791,0,0,0,0,1.118l5.442,5.486a.791.791,0,0,0,1.118,0l9.418-9.343a.791.791,0,0,0,0-1.118Z" fill="#fff"/>
    </g>
  </g>
</svg>
