<svg xmlns="http://www.w3.org/2000/svg" width="26" height="26" viewBox="0 0 26 26">
  <g id="Grupo_134" data-name="Grupo 134" transform="translate(0 0.142)">
    <circle id="Elipse_10" data-name="Elipse 10" cx="13" cy="13" r="13" transform="translate(0 -0.142)" fill="#a7b1be"/>
    <path id="Icon_zocial-email" data-name="Icon zocial-email" d="M.072,13.736V5.007q0-.015.045-.288L5.254,9.114.133,14.039a1.284,1.284,0,0,1-.061-.3ZM.754,4.113a.653.653,0,0,1,.258-.045H14.846a.858.858,0,0,1,.273.045L9.967,8.523l-.682.546L7.936,10.175,6.588,9.068l-.682-.546ZM.769,14.63,5.936,9.675l2,1.621,2-1.621L15.1,14.63a.728.728,0,0,1-.258.045H1.011a.686.686,0,0,1-.242-.045Zm9.849-5.516L15.74,4.72a.9.9,0,0,1,.045.288v8.728a1.161,1.161,0,0,1-.045.3Z" transform="translate(5.336 3.944)" fill="#f7f8f8"/>
  </g>
</svg>
