<svg xmlns="http://www.w3.org/2000/svg" width="38" height="38" viewBox="0 0 38 38">
  <g id="Grupo_188" data-name="Grupo 188" transform="translate(-1020 -1279)">
    <g id="Grupo_128" data-name="Grupo 128" transform="translate(-266 1023)">
      <circle id="Elipse_5" data-name="Elipse 5" cx="19" cy="19" r="19" transform="translate(1286 256)" fill="#59c67e"/>
    </g>
    <g id="Icon_awesome-paper-plane" data-name="Icon awesome-paper-plane" transform="translate(1029 1288)">
      <path id="Icon_awesome-paper-plane-2" data-name="Icon awesome-paper-plane" d="M19.043.127.5,10.824a.961.961,0,0,0,.088,1.728l4.253,1.784L16.334,4.208a.24.24,0,0,1,.344.332L7.041,16.281V19.5a.96.96,0,0,0,1.7.632l2.54-3.092,4.985,2.088a.963.963,0,0,0,1.32-.728l2.88-17.282A.96.96,0,0,0,19.043.127Z" transform="translate(-0.001 0.002)" fill="#fff"/>
    </g>
  </g>
</svg>
