<svg xmlns="http://www.w3.org/2000/svg" width="26" height="26" viewBox="0 0 26 26">
  <g id="Grupo_133" data-name="Grupo 133" transform="translate(0.333 0.142)">
    <circle id="Elipse_11" data-name="Elipse 11" cx="13" cy="13" r="13" transform="translate(-0.333 -0.142)" fill="#a7b1be"/>
    <path id="Icon_awesome-phone-alt" data-name="Icon awesome-phone-alt" d="M13.25,9.638,10.266,8.36a.639.639,0,0,0-.746.184L8.2,10.158a9.874,9.874,0,0,1-4.72-4.72L5.093,4.116a.638.638,0,0,0,.184-.746L4,.387a.644.644,0,0,0-.733-.37L.5.656a.639.639,0,0,0-.5.623,12.359,12.359,0,0,0,12.36,12.36.639.639,0,0,0,.623-.5l.639-2.77a.647.647,0,0,0-.373-.735Z" transform="translate(5.845 5.844)" fill="#f7f8f8"/>
  </g>
</svg>
