<svg xmlns="http://www.w3.org/2000/svg" width="50.855" height="50.855" viewBox="0 0 50.855 50.855"><defs><style>.a{fill:#6e95ff;}</style></defs><path class="a" d="M52.706,36.721H32.861a1.861,1.861,0,0,1,0-3.721H52.706a1.861,1.861,0,0,1,0,3.721Z" transform="translate(-17.356 -18.116)"/><path class="a" d="M52.706,50.721H32.861a1.861,1.861,0,0,1,0-3.721H52.706a1.861,1.861,0,0,1,0,3.721Z" transform="translate(-17.356 -23.433)"/><path class="a" d="M52.706,64.721H32.861a1.861,1.861,0,0,1,0-3.721H52.706a1.861,1.861,0,0,1,0,3.721Z" transform="translate(-17.356 -28.751)"/><path class="a" d="M34.427,59.855A25.427,25.427,0,1,1,59.855,34.427,25.427,25.427,0,0,1,34.427,59.855Zm0-47.133A21.706,21.706,0,1,0,56.133,34.427,21.706,21.706,0,0,0,34.427,12.721Z" transform="translate(-9 -9)"/></svg>